# Made in Blockbench 4.12.6
mtllib cloth_lantern.mtl

o sphere
v -2.615429240703495e-18 0.11875 -2.081668171172169e-18
v 0.011722777168861612 0.10311963044151784 0.04374999999999998
v 0.020304445662276755 0.060416666666666674 0.07577722283113836
v 0.02344555433772323 0.0020833333333333433 0.0875
v 0.02030444566227676 -0.05624999999999997 0.07577722283113839
v 0.03202722283113837 0.10311963044151784 0.03202722283113837
v 0.05547277716886162 0.060416666666666674 0.05547277716886161
v 0.06405444566227675 0.0020833333333333433 0.06405444566227678
v 0.05547277716886162 -0.05624999999999997 0.05547277716886161
v 0.04374999999999998 0.10311963044151784 0.01172277716886161
v 0.07577722283113837 0.060416666666666674 0.020304445662276755
v 0.08750000000000001 0.0020833333333333433 0.023445554337723228
v 0.0757772228311384 -0.05624999999999997 0.02030444566227676
v 0.04374999999999998 0.10311963044151784 -0.01172277716886162
v 0.07577722283113837 0.060416666666666674 -0.02030444566227677
v 0.08750000000000001 0.0020833333333333433 -0.023445554337723242
v 0.0757772228311384 -0.05624999999999997 -0.020304445662276772
v 0.03202722283113837 0.10311963044151784 -0.03202722283113837
v 0.05547277716886162 0.060416666666666674 -0.055472777168861606
v 0.06405444566227676 0.0020833333333333433 -0.06405444566227675
v 0.05547277716886162 -0.05624999999999997 -0.055472777168861606
v 0.011722777168861623 0.10311963044151784 -0.04374999999999998
v 0.02030444566227678 0.060416666666666674 -0.07577722283113836
v 0.023445554337723256 0.0020833333333333433 -0.0875
v 0.020304445662276783 -0.05624999999999997 -0.07577722283113839
v -0.011722777168861599 0.10311963044151784 -0.04375
v -0.020304445662276734 0.060416666666666674 -0.07577722283113839
v -0.0234455543377232 0.0020833333333333433 -0.0875
v -0.020304445662276738 -0.05624999999999997 -0.07577722283113839
v -0.032027222831138374 0.10311963044151784 -0.032027222831138374
v -0.05547277716886161 0.060416666666666674 -0.05547277716886163
v -0.06405444566227676 0.0020833333333333433 -0.06405444566227678
v -0.05547277716886161 -0.05624999999999997 -0.05547277716886163
v -0.04374999999999999 0.10311963044151784 -0.011722777168861609
v -0.0757772228311384 0.060416666666666674 -0.02030444566227675
v -0.08750000000000001 0.0020833333333333433 -0.02344555433772322
v -0.0757772228311384 -0.05624999999999997 -0.020304445662276755
v -0.043750000000000004 0.10311963044151784 0.011722777168861592
v -0.0757772228311384 0.060416666666666674 0.02030444566227672
v -0.08750000000000001 0.0020833333333333433 0.02344555433772319
v -0.0757772228311384 -0.05624999999999997 0.020304445662276724
v -0.03202722283113838 0.10311963044151784 0.03202722283113836
v -0.055472777168861634 0.060416666666666674 0.05547277716886159
v -0.06405444566227678 0.0020833333333333433 0.06405444566227675
v -0.055472777168861634 -0.05624999999999997 0.05547277716886159
v -0.011722777168861614 0.10311963044151784 0.04374999999999998
v -0.02030444566227676 0.060416666666666674 0.07577722283113836
v -0.02344555433772323 0.0020833333333333433 0.0875
v -0.02030444566227676 -0.05624999999999997 0.07577722283113839
vt 3.3861802251067274e-15 0.9353
vt 0.03348750000000339 0.9353
vt 0.016743750000003388 1
vt 0.012262500000001897 1
vt 1.897787482718627e-15 0.9353
vt 0.058012500000001896 0.9353
vt 0.0457500000000019 1
vt 0.004487500000000005 1
vt 0 0.9353
vt 0.0669875 0.9353
vt 0.0625 1
vt 0 1
vt 0.004487500000000005 0.9353
vt 0.0625 0.9353
vt 0.0669875 1
vt 3.3861802251067274e-15 0.9353
vt 0.03348750000000339 0.9353
vt 0.016743750000003388 1
vt 0.012262500000001897 1
vt 1.897787482718627e-15 0.9353
vt 0.058012500000001896 0.9353
vt 0.0457500000000019 1
vt 0.004487500000000005 1
vt 0 0.9353
vt 0.0669875 0.9353
vt 0.0625 1
vt 0 1
vt 0.004487500000000005 0.9353
vt 0.0625 0.9353
vt 0.0669875 1
vt 3.3861802251067274e-15 0.9353
vt 0.03348750000000339 0.9353
vt 0.016743750000003388 1
vt 0.012262500000001897 1
vt 1.897787482718627e-15 0.9353
vt 0.058012500000001896 0.9353
vt 0.0457500000000019 1
vt 0.004487500000000005 1
vt 0 0.9353
vt 0.0669875 0.9353
vt 0.0625 1
vt 0 1
vt 0.004487500000000005 0.9353
vt 0.0625 0.9353
vt 0.0669875 1
vt 3.3861802251067274e-15 0.9353
vt 0.03348750000000339 0.9353
vt 0.016743750000003388 1
vt 0.012262500000001897 1
vt 1.897787482718627e-15 0.9353
vt 0.058012500000001896 0.9353
vt 0.0457500000000019 1
vt 0.004487500000000005 1
vt 0 0.9353
vt 0.0669875 0.9353
vt 0.0625 1
vt 0 1
vt 0.004487500000000005 0.9353
vt 0.0625 0.9353
vt 0.0669875 1
vt 3.3861802251067274e-15 0.9353
vt 0.03348750000000339 0.9353
vt 0.016743750000003388 1
vt 0.012262500000001897 1
vt 1.897787482718627e-15 0.9353
vt 0.058012500000001896 0.9353
vt 0.0457500000000019 1
vt 0.004487500000000005 1
vt 0 0.9353
vt 0.0669875 0.9353
vt 0.0625 1
vt 0 1
vt 0.004487500000000005 0.9353
vt 0.0625 0.9353
vt 0.0669875 1
vt 3.3861802251067274e-15 0.9353
vt 0.03348750000000339 0.9353
vt 0.016743750000003388 1
vt 0.012262500000001897 1
vt 1.897787482718627e-15 0.9353
vt 0.058012500000001896 0.9353
vt 0.0457500000000019 1
vt 0.004487500000000005 1
vt 0 0.9353
vt 0.0669875 0.9353
vt 0.0625 1
vt 0 1
vt 0.004487500000000005 0.9353
vt 0.0625 0.9353
vt 0.0669875 1
vt 3.3861802251067274e-15 0.9353
vt 0.03348750000000339 0.9353
vt 0.016743750000003388 1
vt 0.012262500000001897 1
vt 1.897787482718627e-15 0.9353
vt 0.058012500000001896 0.9353
vt 0.0457500000000019 1
vt 0.004487500000000005 1
vt 0 0.9353
vt 0.0669875 0.9353
vt 0.0625 1
vt 0 1
vt 0.004487500000000005 0.9353
vt 0.0625 0.9353
vt 0.0669875 1
vt 3.3861802251067274e-15 0.9353
vt 0.03348750000000339 0.9353
vt 0.016743750000003388 1
vt 0.012262500000001897 1
vt 1.897787482718627e-15 0.9353
vt 0.058012500000001896 0.9353
vt 0.0457500000000019 1
vt 0.004487500000000005 1
vt 0 0.9353
vt 0.0669875 0.9353
vt 0.0625 1
vt 0 1
vt 0.004487500000000005 0.9353
vt 0.0625 0.9353
vt 0.0669875 1
vt 3.3861802251067274e-15 0.9353
vt 0.03348750000000339 0.9353
vt 0.016743750000003388 1
vt 0.012262500000001897 1
vt 1.897787482718627e-15 0.9353
vt 0.058012500000001896 0.9353
vt 0.0457500000000019 1
vt 0.004487500000000005 1
vt 0 0.9353
vt 0.0669875 0.9353
vt 0.0625 1
vt 0 1
vt 0.004487500000000005 0.9353
vt 0.0625 0.9353
vt 0.0669875 1
vt 3.3861802251067274e-15 0.9353
vt 0.03348750000000339 0.9353
vt 0.016743750000003388 1
vt 0.012262500000001897 1
vt 1.897787482718627e-15 0.9353
vt 0.058012500000001896 0.9353
vt 0.0457500000000019 1
vt 0.004487500000000005 1
vt 0 0.9353
vt 0.0669875 0.9353
vt 0.0625 1
vt 0 1
vt 0.004487500000000005 0.9353
vt 0.0625 0.9353
vt 0.0669875 1
vt 3.3861802251067274e-15 0.9353
vt 0.03348750000000339 0.9353
vt 0.016743750000003388 1
vt 0.012262500000001897 1
vt 1.897787482718627e-15 0.9353
vt 0.058012500000001896 0.9353
vt 0.0457500000000019 1
vt 0.004487500000000005 1
vt 0 0.9353
vt 0.0669875 0.9353
vt 0.0625 1
vt 0 1
vt 0.004487500000000005 0.9353
vt 0.0625 0.9353
vt 0.0669875 1
vt 3.3861802251067274e-15 0.9353
vt 0.03348750000000339 0.9353
vt 0.016743750000003388 1
vt 0.012262500000001897 1
vt 1.897787482718627e-15 0.9353
vt 0.058012500000001896 0.9353
vt 0.0457500000000019 1
vt 0.004487500000000005 1
vt 0 0.9353
vt 0.0669875 0.9353
vt 0.0625 1
vt 0 1
vt 0.004487500000000005 0.9353
vt 0.0625 0.9353
vt 0.0669875 1
vn 0.16821944932797286 0.9417052975698792 0.29136463305730714
vn 0.39999999999999963 0.6 0.6928203230275511
vn 0.49019945128046005 0.19702282065116852 0.849050355460142
vn 0.49019945128046044 -0.19702282065116822 0.8490503554601417
vn 0.29136463305730714 0.9417052975698792 0.16821944932797284
vn 0.6928203230275509 0.6000000000000003 0.3999999999999998
vn 0.849050355460142 0.19702282065116822 0.49019945128046055
vn 0.8490503554601417 -0.19702282065116827 0.4901994512804606
vn 0.3364388986559457 0.9417052975698792 0
vn 0.7999999999999999 0.6000000000000002 0
vn 0.9803989025609207 0.19702282065116852 0
vn 0.9803989025609207 -0.1970228206511682 0
vn 0.29136463305730714 0.9417052975698791 -0.1682194493279729
vn 0.6928203230275508 0.6000000000000002 -0.39999999999999997
vn 0.8490503554601416 0.19702282065116847 -0.4901994512804606
vn 0.8490503554601416 -0.1970228206511682 -0.49019945128046094
vn 0.1682194493279729 0.9417052975698791 -0.2913646330573071
vn 0.39999999999999997 0.6000000000000003 -0.6928203230275508
vn 0.4901994512804606 0.1970228206511682 -0.8490503554601416
vn 0.4901994512804608 -0.19702282065116833 -0.8490503554601417
vn 1.991434102425838e-16 0.9417052975698792 -0.33643889865594556
vn 5.001739962638836e-16 0.6000000000000002 -0.7999999999999999
vn 0 0.19702282065116858 -0.9803989025609208
vn 0 -0.19702282065116816 -0.9803989025609207
vn -0.16821944932797278 0.941705297569879 -0.29136463305730714
vn -0.39999999999999974 0.6000000000000002 -0.692820323027551
vn -0.4901994512804598 0.19702282065116808 -0.8490503554601422
vn -0.49019945128046005 -0.19702282065116813 -0.8490503554601421
vn -0.29136463305730714 0.9417052975698792 -0.16821944932797278
vn -0.6928203230275507 0.6000000000000003 -0.4000000000000002
vn -0.849050355460142 0.19702282065116836 -0.4901994512804602
vn -0.8490503554601416 -0.19702282065116847 -0.4901994512804605
vn -0.33643889865594556 0.9417052975698791 -1.9914341024258394e-16
vn -0.7999999999999997 0.6000000000000004 0
vn -0.9803989025609208 0.1970228206511681 0
vn -0.9803989025609207 -0.19702282065116813 0
vn -0.29136463305730714 0.9417052975698792 0.16821944932797284
vn -0.6928203230275509 0.6000000000000002 0.39999999999999986
vn -0.8490503554601421 0.19702282065116808 0.49019945128045994
vn -0.849050355460142 -0.19702282065116813 0.49019945128046016
vn -0.16821944932797286 0.9417052975698792 0.29136463305730714
vn -0.3999999999999999 0.6000000000000002 0.692820323027551
vn -0.49019945128046033 0.19702282065116838 0.8490503554601418
vn -0.4901994512804607 -0.19702282065116852 0.8490503554601416
vn 0 0.9417052975698792 0.3364388986559456
vn 0 0.6000000000000001 0.8
vn 0 0.19702282065116858 0.9803989025609208
vn 0 -0.19702282065116816 0.9803989025609207
usemtl none
f 2/1/1 6/2/1 1/3/1
f 2/4/2 3/5/2 7/6/2 6/7/2
f 3/8/3 4/9/3 8/10/3 7/11/3
f 4/12/4 5/13/4 9/14/4 8/15/4
f 6/16/5 10/17/5 1/18/5
f 6/19/6 7/20/6 11/21/6 10/22/6
f 7/23/7 8/24/7 12/25/7 11/26/7
f 8/27/8 9/28/8 13/29/8 12/30/8
f 10/31/9 14/32/9 1/33/9
f 10/34/10 11/35/10 15/36/10 14/37/10
f 11/38/11 12/39/11 16/40/11 15/41/11
f 12/42/12 13/43/12 17/44/12 16/45/12
f 14/46/13 18/47/13 1/48/13
f 14/49/14 15/50/14 19/51/14 18/52/14
f 15/53/15 16/54/15 20/55/15 19/56/15
f 16/57/16 17/58/16 21/59/16 20/60/16
f 18/61/17 22/62/17 1/63/17
f 18/64/18 19/65/18 23/66/18 22/67/18
f 19/68/19 20/69/19 24/70/19 23/71/19
f 20/72/20 21/73/20 25/74/20 24/75/20
f 22/76/21 26/77/21 1/78/21
f 22/79/22 23/80/22 27/81/22 26/82/22
f 23/83/23 24/84/23 28/85/23 27/86/23
f 24/87/24 25/88/24 29/89/24 28/90/24
f 26/91/25 30/92/25 1/93/25
f 26/94/26 27/95/26 31/96/26 30/97/26
f 27/98/27 28/99/27 32/100/27 31/101/27
f 28/102/28 29/103/28 33/104/28 32/105/28
f 30/106/29 34/107/29 1/108/29
f 30/109/30 31/110/30 35/111/30 34/112/30
f 31/113/31 32/114/31 36/115/31 35/116/31
f 32/117/32 33/118/32 37/119/32 36/120/32
f 34/121/33 38/122/33 1/123/33
f 34/124/34 35/125/34 39/126/34 38/127/34
f 35/128/35 36/129/35 40/130/35 39/131/35
f 36/132/36 37/133/36 41/134/36 40/135/36
f 38/136/37 42/137/37 1/138/37
f 38/139/38 39/140/38 43/141/38 42/142/38
f 39/143/39 40/144/39 44/145/39 43/146/39
f 40/147/40 41/148/40 45/149/40 44/150/40
f 42/151/41 46/152/41 1/153/41
f 42/154/42 43/155/42 47/156/42 46/157/42
f 43/158/43 44/159/43 48/160/43 47/161/43
f 44/162/44 45/163/44 49/164/44 48/165/44
f 46/166/45 2/167/45 1/168/45
f 46/169/46 47/170/46 3/171/46 2/172/46
f 47/173/47 48/174/47 4/175/47 3/176/47
f 48/177/48 49/178/48 5/179/48 4/180/48